<svg xmlns="http://www.w3.org/2000/svg" viewBox="-170.135 -146.98 725.09 725.09" width="64" height="64" role="img"><title>CASS</title><defs><linearGradient id="g0" x1="0" y1="0" x2="1" y2="1"><stop offset="0" stop-color="#4FA3E8"/><stop offset="1" stop-color="#0F4C8A"/></linearGradient><linearGradient id="g1" x1="0" y1="1" x2="1" y2="0"><stop offset="0" stop-color="#176BB8"/><stop offset="1" stop-color="#0F4C8A"/></linearGradient><linearGradient id="g2" x1="0" y1="0" x2="1" y2="1"><stop offset="0" stop-color="#4FA3E8"/><stop offset="1" stop-color="#0F4C8A"/></linearGradient><linearGradient id="g3" x1="0" y1="1" x2="1" y2="0"><stop offset="0" stop-color="#176BB8"/><stop offset="1" stop-color="#0F4C8A"/></linearGradient></defs><path d="M514.32 959.66C505.99 956.97 497.89 953.69 490.17 949.79 490.17 949.78 490.16 949.78 490.16 949.78 454.48 931.69 428.13 897.87 420.24 857.43 418.64 849.22 417.8 840.72 417.8 832.04 417.8 803.88 426.62 777.78 441.65 756.36L473.81 856.88C493.46 706.77 617.35 676.53 617.35 676.53 537.13 767.76 537.52 899.08 562.38 968.51L565.06 975.99Z" transform="matrix(1,0,0,-1,-352.2756,1215.6244)" fill="url(#g0)"/><path d="M468.71 1157.48 433.29 1192.9C424.56 1145.84 452.65 1098.97 532.54 1057.99L611.38 1017.55C635.64 1056.03 616.59 1084.5 594.81 1118.5L555.72 1179.51C532.66 1215.51 518.15 1262.85 546.35 1323.47 483.43 1292.44 432 1226.07 468.71 1157.48" transform="matrix(1,0,0,-1,-352.2756,1215.6244)" fill="url(#g1)"/><path d="M652.75 1148.36C636.66 1148.77 623.6 1139.43 618.13 1124.17L565.06 975.99 609.04 990.14C731.23 1029.48 602.94 1136.37 722.7 1194.73 722.7 1194.73 676.42 1186 652.75 1148.36" transform="matrix(1,0,0,-1,-352.2756,1215.6244)" fill="url(#g2)"/><path d="M439.56 1022.6H389.47C416.58 983.16 469.58 969.88 555.05 997.39L639.39 1024.54C629.34 1068.91 595.73 1075.57 556.29 1084.21L485.51 1099.71C443.75 1108.86 400.02 1132.069 377.09 1194.89 354.54 1128.45 365.1 1045.16 439.56 1022.6" transform="matrix(1,0,0,-1,-352.2756,1215.6244)" fill="url(#g3)"/><path d="M0 0C19.65-150.11 143.54-180.35 143.54-180.35 143.54-180.35 71.01-148.24 39.58-46.97L73.72-90.04C73.72-90.04 24.82-2.5 37.91 101.92 30.49 99.4 23.28 96.4 16.36 92.91 16.36 92.9 16.35 92.9 16.35 92.9-19.33 74.81-45.68 40.99-53.57 .55-55.17-7.66-56.01-16.16-56.01-24.84-56.01-53-47.19-79.1-32.16-100.52Z" transform="matrix(1,0,0,-1,121.53439,358.7444)" fill="#8FC5F2" fill-opacity="0.6"/><path d="M0 0C24.26 38.48 5.21 66.95-16.57 100.95L-55.66 161.96C-78.72 197.96-93.23 245.3-65.03 305.92-65.03 305.92-151.66 225.05-75.41 132.83-75.41 132.83-109.39 156.25-116.93 193.84-154.05 86.84 33.23 90.27 0 0Z" transform="matrix(1,0,0,-1,259.1044,198.0744)" fill="#8FC5F2" fill-opacity="0.6"/><path d="M0 0C11.05 17.53 16.78 26.75 17.49 35.1 3.94 56.49-21.19 64.35-49.35 73.6L-118.19 96.2C-138.06 102.73-158.05 112.65-175.21 128.67-163.92 97.34-133.59 66.95-79.59 39.25L-2.18-.46 0 0Z" transform="matrix(1,0,0,-1,259.8544,196.8844)" fill="#0F4C8A" fill-opacity="0.45"/><path d="M0 0-13.71-38.28 30.27-24.13C152.46 15.21 24.17 122.1 143.93 180.46 24.51 138.36 118.47 19.37 0 0Z" transform="matrix(1,0,0,-1,226.49442,201.35437)" fill="#0F4C8A" fill-opacity="0.45"/><path d="M0 0-26.31-73.45 42.15-41.29C33.3-17.08 18.49-5.84 0 0Z" transform="matrix(1,0,0,-1,244.96439,149.79431)" fill="#0F4C8A" fill-opacity="0.45"/><path d="M0 0-23.75-66.31 37.89-53.19C34.4-24.52 19.92-10 0 0" transform="matrix(1,0,0,-1,249.2244,137.89441)" fill="#0F4C8A" fill-opacity="0.45"/><path d="M0 0C-10.05 44.37-43.66 51.03-83.1 59.67L-153.88 75.17C-195.64 84.32-239.37 107.53-262.3 170.35-262.3 170.35-266.38 51.9-147.25 40.61-147.25 40.61-187.83 33.14-219.74 54.39-170.33-47.52-40.34 87.34 0 0" transform="matrix(1,0,0,-1,287.1144,191.08435)" fill="#8FC5F2" fill-opacity="0.6"/></svg>